<?xml version="1.0" encoding="utf-8"?>
<!-- Generator: Adobe Illustrator 16.0.0, SVG Export Plug-In . SVG Version: 6.00 Build 0)  -->
<!DOCTYPE svg PUBLIC "-//W3C//DTD SVG 1.1//EN" "http://www.w3.org/Graphics/SVG/1.1/DTD/svg11.dtd">
<svg version="1.1" id="Layer_1" xmlns="http://www.w3.org/2000/svg" xmlns:xlink="http://www.w3.org/1999/xlink" x="0px" y="0px"
	 width="250.011px" height="205.5px" viewBox="0 0 250.011 205.5" enable-background="new 0 0 250.011 205.5" xml:space="preserve">
<g>
	<g>
		<path fill="#ADCB37" d="M80.176,65.953v35.26c3.833-3.974,8.176-5.962,13.031-5.962c5.592,0,10.248,2.086,13.968,6.26
			c3.719,4.146,5.578,9.312,5.578,15.501c0,6.387-1.874,11.666-5.621,15.84c-3.72,4.146-8.417,6.217-14.095,6.217
			c-4.798,0-9.085-1.844-12.861-5.535v4.344h-9.582V65.953H80.176z M102.959,117.438c0-3.975-1.079-7.211-3.237-9.709
			c-2.186-2.557-4.926-3.833-8.219-3.833c-3.52,0-6.388,1.235-8.602,3.704c-2.187,2.443-3.279,5.621-3.279,9.54
			c0,4.03,1.079,7.253,3.236,9.667c2.157,2.469,4.996,3.703,8.517,3.703c3.321,0,6.075-1.234,8.261-3.703
			C101.852,124.307,102.959,121.184,102.959,117.438z"/>
		<path fill="#ADCB37" d="M117.441,116.84c0-5.988,2.143-11.084,6.43-15.287c4.287-4.202,9.509-6.303,15.671-6.303
			c6.188,0,11.441,2.115,15.755,6.345c4.26,4.231,6.387,9.426,6.387,15.586c0,6.217-2.143,11.428-6.429,15.627
			c-4.316,4.174-9.609,6.26-15.885,6.26c-6.216,0-11.425-2.127-15.627-6.387C119.542,128.482,117.441,123.199,117.441,116.84z
			 M127.234,117.012c0,4.145,1.107,7.424,3.324,9.836c2.27,2.443,5.264,3.662,8.984,3.662c3.746,0,6.742-1.205,8.984-3.619
			c2.245-2.412,3.365-5.635,3.365-9.666c0-4.033-1.121-7.254-3.365-9.667c-2.27-2.44-5.267-3.662-8.984-3.662
			c-3.663,0-6.628,1.222-8.901,3.662C128.371,110,127.234,113.15,127.234,117.012z"/>
		<path fill="#ADCB37" d="M177.913,65.953v71.924h-9.581V65.953H177.913z"/>
		<path fill="#ADCB37" d="M196.441,105.343v32.534h-9.583v-32.534h-4.087V96.4h4.087V81.198h9.583V96.4h7.452v8.942H196.441z"/>
	</g>
</g>
<rect x="36.297" y="66.21" fill="#ADCB37" width="9.519" height="24.774"/>
<rect x="36.297" y="66.21" fill="#ADCB37" width="9.519" height="24.774"/>
<rect x="52.957" y="66.21" fill="#ADCB37" width="9.519" height="53.624"/>
</svg>
