<?xml version="1.0" encoding="utf-8"?>
<!-- Generator: Adobe Illustrator 16.0.0, SVG Export Plug-In . SVG Version: 6.00 Build 0)  -->
<!DOCTYPE svg PUBLIC "-//W3C//DTD SVG 1.1//EN" "http://www.w3.org/Graphics/SVG/1.1/DTD/svg11.dtd">
<svg version="1.1" id="Layer_1" xmlns="http://www.w3.org/2000/svg" xmlns:xlink="http://www.w3.org/1999/xlink" x="0px" y="0px"
	 width="250.012px" height="205.5px" viewBox="0 0 250.012 205.5" enable-background="new 0 0 250.012 205.5" xml:space="preserve">
<g>
	<g>
		<path fill="#ADCB37" d="M75.863,13.307v43.044c4.679-4.851,9.982-7.278,15.908-7.278c6.826,0,12.51,2.547,17.051,7.642
			c4.541,5.062,6.81,11.368,6.81,18.923c0,7.797-2.288,14.242-6.862,19.337c-4.541,5.062-10.275,7.589-17.207,7.589
			c-5.857,0-11.09-2.251-15.701-6.756v5.303H64.166V13.307H75.863z M103.676,76.157c0-4.852-1.317-8.803-3.951-11.853
			c-2.669-3.121-6.015-4.678-10.035-4.678c-4.296,0-7.798,1.507-10.5,4.521c-2.67,2.982-4.003,6.862-4.003,11.647
			c0,4.918,1.317,8.853,3.951,11.8c2.633,3.014,6.099,4.521,10.397,4.521c4.054,0,7.416-1.507,10.085-4.521
			C102.325,84.543,103.676,80.73,103.676,76.157z"/>
		<path fill="#ADCB37" d="M121.355,75.428c0-7.311,2.615-13.531,7.85-18.662c5.233-5.129,11.607-7.694,19.13-7.694
			c7.555,0,13.968,2.582,19.233,7.746c5.201,5.166,7.798,11.508,7.798,19.028c0,7.589-2.617,13.951-7.85,19.077
			c-5.268,5.095-11.729,7.642-19.392,7.642c-7.588,0-13.946-2.597-19.076-7.797C123.92,89.641,121.355,83.191,121.355,75.428z
			 M133.31,75.637c0,5.061,1.351,9.063,4.058,12.007c2.771,2.983,6.426,4.471,10.967,4.471c4.573,0,8.23-1.471,10.968-4.418
			c2.741-2.945,4.108-6.879,4.108-11.8c0-4.924-1.368-8.855-4.108-11.8c-2.771-2.979-6.43-4.471-10.968-4.471
			c-4.472,0-8.091,1.492-10.865,4.471C134.698,67.078,133.31,70.923,133.31,75.637z"/>
		<path fill="#ADCB37" d="M195.177,13.307v87.802h-11.696V13.307H195.177z"/>
		<path fill="#ADCB37" d="M217.796,61.392v39.717h-11.698V61.392h-4.989V50.475h4.989V31.917h11.698v18.558h9.098v10.916
			L217.796,61.392L217.796,61.392z"/>
	</g>
</g>
<rect x="22.297" y="13.62" fill="#ADCB37" width="11.621" height="30.243"/>
<rect x="22.297" y="13.62" fill="#ADCB37" width="11.621" height="30.243"/>
<rect x="42.635" y="13.62" fill="#ADCB37" width="11.621" height="65.462"/>
</svg>
